# xmcd CD database file
#
# Track frame offsets:
#	150
#	15241
#	24869
#	36359
#	45821
#	57942
#	68538
#	79066
#	88418
#	101677
#	112397
#	121736
#	131025
#	143555
#	153166
#	162762
#	172822
#	183286
#	193428
#	203258
#	212727
#	221549
#	233121
#	245736
#
# Disc length: 3405 seconds
#
# Revision: 0
# Processed by: cddbd v1.5.2PL0 Copyright (c) Steve Scherf et al.
# Submitted via: jetAudio 7
#
DISCID=3d0d4b18
DTITLE=Chet Atkins - 8 Classic Albums Vol. 2 - Disc 3
DYEAR=1900
DGENRE=Country
TTITLE0=Begin The Beguine
TTITLE1=Sabrosa
TTITLE2=Yours (Quiéreme Mucho)
TTITLE3=Siboney
TTITLE4=The Streets Of Laredo
TTITLE5=Delicado
TTITLE6=Peanut Vendor
TTITLE7=El Relicario
TTITLE8=Maria Elena
TTITLE9=Marcheta
TTITLE10=Tzena, Tzena, Tzena
TTITLE11=Poinciana (Song Of The Tree)
TTITLE12=Lambeth Walk
TTITLE13=Theme From ''A Summer Place''
TTITLE14=Whispering
TTITLE15=In A Little Spanish Town ('Twas On A Night Like This)
TTITLE16=Sleep
TTITLE17=Marie
TTITLE18=Hot Mocking Bird
TTITLE19=Lullaby Of Birdland
TTITLE20=Tammy
TTITLE21=Goofus
TTITLE22=Bonita
TTITLE23=Whatever Will Be, Will Be (Que Será, Será)
EXTD=
EXTT0=
EXTT1=
EXTT2=
EXTT3=
EXTT4=
EXTT5=
EXTT6=
EXTT7=
EXTT8=
EXTT9=
EXTT10=
EXTT11=
EXTT12=
EXTT13=
EXTT14=
EXTT15=
EXTT16=
EXTT17=
EXTT18=
EXTT19=
EXTT20=
EXTT21=
EXTT22=
EXTT23=
PLAYORDER=
